<svg width="512" height="512" viewBox="0 0 512 512" fill="none" xmlns="http://www.w3.org/2000/svg">
<circle cx="256" cy="256" r="256" fill="#1E0507"/>
<circle cx="256" cy="256" r="227.5" stroke="#901D22" stroke-width="37"/>
<circle cx="256" cy="256" r="22.5" stroke="#F6B61D" stroke-width="19"/>
<circle cx="256" cy="256" r="77" stroke="#F6B61D" stroke-width="14"/>
<circle cx="256" cy="29" r="12" fill="#1E0507"/>
<circle cx="256" cy="29" r="12" fill="#1E0507"/>
<circle cx="370" cy="59.5462" r="12" transform="rotate(30 370 59.5462)" fill="#1E0507"/>
<circle cx="453.454" cy="143" r="12" transform="rotate(60 453.454 143)" fill="#1E0507"/>
<circle cx="484" cy="257" r="12" transform="rotate(90 484 257)" fill="#1E0507"/>
<circle cx="453.454" cy="371" r="12" transform="rotate(120 453.454 371)" fill="#1E0507"/>
<circle cx="370" cy="454.454" r="12" transform="rotate(150 370 454.454)" fill="#1E0507"/>
<circle cx="256" cy="485" r="12" transform="rotate(180 256 485)" fill="#1E0507"/>
<circle cx="142" cy="454.454" r="12" transform="rotate(-150 142 454.454)" fill="#1E0507"/>
<circle cx="58.5462" cy="371" r="12" transform="rotate(-120 58.5462 371)" fill="#1E0507"/>
<circle cx="28" cy="257" r="12" transform="rotate(-90 28 257)" fill="#1E0507"/>
<circle cx="58.5462" cy="143" r="12" transform="rotate(-60 58.5462 143)" fill="#1E0507"/>
<circle cx="142" cy="59.5462" r="12" transform="rotate(-30 142 59.5462)" fill="#1E0507"/>
<circle cx="170" cy="112" r="12" fill="#901D22"/>
<circle cx="111" cy="171" r="12" fill="#901D22"/>
<path d="M256 29L227.132 79L284.868 79L256 29ZM256 234L261 234L261 74L256 74L251 74L251 234L256 234Z" fill="#F6B61D"/>
<path d="M370 454L371.138 396.276L320.579 424.152L370 454ZM268 269L263.621 271.414L343.894 417.007L348.273 414.593L352.651 412.179L272.379 266.586L268 269Z" fill="#F6B61D"/>
<path d="M378.664 228.192H386.44V244.128H424.456V228.192H432.424V275.04H378.664V228.192ZM386.44 251.136V268.032H424.456V251.136H386.44Z" fill="#F6B61D"/>
<path d="M229.76 387.96H283.616V394.488H237.632V430.776H229.76V387.96ZM229.76 427.416H284.384V433.944H229.76V427.416ZM231.584 407.256H282.944V413.784H231.584V407.256Z" fill="#F6B61D"/>
<path d="M70.896 228.192H125.232V254.784H78.672V272.544H71.088V248.448H117.648V234.624H70.896V228.192ZM71.088 268.896H126.768V275.52H71.088V268.896Z" fill="#F6B61D"/>
</svg>
